<svg width="257" height="50" viewBox="0 0 257 50" fill="none" xmlns="http://www.w3.org/2000/svg">
<path d="M83.328 28.12C83.84 28.12 84.272 27.944 84.624 27.592C84.992 27.224 85.176 26.784 85.176 26.272V17.848H88.056V26.272C88.056 26.928 87.928 27.544 87.672 28.12C87.432 28.696 87.096 29.2 86.664 29.632C86.248 30.048 85.752 30.384 85.176 30.64C84.6 30.88 83.984 31 83.328 31H78V28.12H83.328ZM100.091 17.8H102.971V26.272C102.971 26.784 103.147 27.224 103.499 27.592C103.867 27.944 104.307 28.12 104.819 28.12H113.987C114.499 28.12 114.931 27.944 115.283 27.592C115.635 27.224 115.811 26.784 115.811 26.272V17.8H118.715V26.272C118.715 26.928 118.587 27.544 118.331 28.12C118.091 28.696 117.755 29.2 117.323 29.632C116.891 30.048 116.387 30.384 115.811 30.64C115.235 30.88 114.627 31 113.987 31H104.819C104.163 31 103.547 30.88 102.971 30.64C102.395 30.384 101.891 30.048 101.459 29.632C101.043 29.2 100.707 28.696 100.451 28.12C100.211 27.544 100.091 26.928 100.091 26.272V17.8ZM145.427 25.96C145.939 25.96 146.371 25.784 146.723 25.432C147.091 25.08 147.275 24.648 147.275 24.136V22.576C147.275 22.064 147.091 21.632 146.723 21.28C146.371 20.912 145.939 20.728 145.427 20.728H133.523V25.96H145.427ZM150.155 24.136C150.155 24.792 150.027 25.408 149.771 25.984C149.531 26.544 149.195 27.04 148.763 27.472C148.347 27.904 147.851 28.248 147.275 28.504C146.699 28.744 146.083 28.864 145.427 28.864H133.523V31H130.643V17.848L145.427 17.824C146.083 17.824 146.699 17.952 147.275 18.208C147.851 18.448 148.347 18.784 148.763 19.216C149.195 19.648 149.531 20.152 149.771 20.728C150.027 21.304 150.155 21.92 150.155 22.576V24.136ZM164.615 31H161.735V17.848H164.615V31ZM176.654 17.848H193.694V20.728H186.758V31H183.59V20.728H176.654V17.848ZM224.914 28.12V31H210.13C209.474 31 208.858 30.88 208.282 30.64C207.706 30.384 207.202 30.048 206.77 29.632C206.354 29.2 206.018 28.696 205.762 28.12C205.522 27.544 205.402 26.928 205.402 26.272V22.576C205.402 21.92 205.522 21.304 205.762 20.728C206.018 20.152 206.354 19.648 206.77 19.216C207.202 18.784 207.706 18.448 208.282 18.208C208.858 17.952 209.474 17.824 210.13 17.824L224.914 17.848V20.728H210.13C209.618 20.728 209.178 20.912 208.81 21.28C208.458 21.632 208.282 22.064 208.282 22.576V22.96H224.026V25.864H208.282V26.272C208.282 26.784 208.458 27.224 208.81 27.592C209.178 27.944 209.618 28.12 210.13 28.12H224.914ZM242.472 24.424H251.16C251.672 24.424 252.104 24.248 252.456 23.896C252.824 23.528 253.008 23.088 253.008 22.576C253.008 22.064 252.824 21.632 252.456 21.28C252.104 20.912 251.672 20.728 251.16 20.728H239.256V31H236.376V17.848L251.16 17.824C251.816 17.824 252.432 17.952 253.008 18.208C253.584 18.448 254.08 18.784 254.496 19.216C254.928 19.648 255.264 20.152 255.504 20.728C255.76 21.304 255.888 21.92 255.888 22.576C255.888 23.232 255.76 23.848 255.504 24.424C255.264 25 254.928 25.504 254.496 25.936C254.08 26.352 253.584 26.688 253.008 26.944C252.432 27.184 251.816 27.304 251.16 27.304H249.48L255.744 31H250.152L241.992 26.176C241.784 26.064 241.648 25.912 241.584 25.72C241.52 25.512 241.512 25.312 241.56 25.12C241.608 24.928 241.712 24.768 241.872 24.64C242.032 24.496 242.232 24.424 242.472 24.424Z" fill="#C99039"/>
<path d="M25 0C11.1826 0 0 11.1815 0 25C0 38.8175 11.1815 50.0001 25 50.0001C38.8175 50.0001 50 38.8186 50 25.0001C50.0002 11.1826 38.8187 0 25 0ZM25 3.25753C28.4482 3.25753 31.7108 4.06574 34.6103 5.50051C33.0016 6.47874 31.4902 7.59632 29.5484 8.59496C24.3494 11.2688 20.7384 11.6984 12.3463 7.32952C15.9131 4.76789 20.2834 3.25753 25 3.25753ZM9.6643 9.60228C17.9299 13.7799 22.7709 15.7434 31.0381 11.4917C33.8524 10.0445 35.7321 8.45218 37.8211 7.45159C42.9368 11.1994 46.361 17.1257 46.7124 23.8529C41.1794 23.5262 36.1071 21.4601 32.2641 20.2066C27.9639 18.8041 17.0306 16.1423 8.40111 21.7035C6.67044 22.8187 4.95559 23.5859 3.28126 23.9986C3.53722 18.3862 5.93 13.3217 9.6643 9.60228ZM25 46.7427C21.8211 46.7427 18.7996 46.0567 16.0752 44.8254C18.6722 43.8539 21.7451 43.1907 24.7082 43.7303C28.2831 44.3815 30.6424 44.8758 32.9483 45.2384C30.4851 46.2092 27.8037 46.7427 25 46.7427ZM37.8578 42.5218C33.7486 42.2379 31.1991 41.6019 25.292 40.5256C20.6219 39.6748 15.9125 41.1905 12.525 42.7973C10.2666 41.2095 8.32318 39.2033 6.80725 36.8921C9.52758 35.6785 13.3502 34.7663 17.846 35.8905C28.1818 38.4745 30.9682 36.4456 37.7446 33.7029C39.6711 32.9232 42.2374 32.6666 45.2409 32.941C43.7257 36.7903 41.1419 40.1054 37.8578 42.5218ZM46.2152 29.7657C42.3717 29.3277 39.1153 29.6338 36.5226 30.6832C29.6706 33.4568 27.8417 35.0316 18.6363 32.7301C13.1217 31.3513 8.47035 32.5325 5.22483 34.0326C4.26896 31.9481 3.63322 29.6877 3.38097 27.3143C5.62766 26.8619 7.90296 25.9 10.166 24.4415C17.8295 19.5029 28.2447 22.3219 31.2542 23.3034C35.2344 24.6018 40.5736 26.7837 46.6399 27.1129C46.5524 28.0145 46.4097 28.8997 46.2152 29.7657Z" fill="#C99039"/>
</svg>
