<svg width="477" height="205" viewBox="0 0 477 205" fill="none" xmlns="http://www.w3.org/2000/svg">
<path d="M14.208 181.32C15.5733 181.32 16.7253 180.851 17.664 179.912C18.6453 178.931 19.136 177.757 19.136 176.392V153.928H26.816V176.392C26.816 178.141 26.4747 179.784 25.792 181.32C25.152 182.856 24.256 184.2 23.104 185.352C21.9947 186.461 20.672 187.357 19.136 188.04C17.6 188.68 15.9573 189 14.208 189H0V181.32H14.208ZM58.91 153.8H66.59V176.392C66.59 177.757 67.0593 178.931 67.998 179.912C68.9793 180.851 70.1527 181.32 71.518 181.32H95.966C97.3313 181.32 98.4833 180.851 99.422 179.912C100.361 178.931 100.83 177.757 100.83 176.392V153.8H108.574V176.392C108.574 178.141 108.233 179.784 107.55 181.32C106.91 182.856 106.014 184.2 104.862 185.352C103.71 186.461 102.366 187.357 100.83 188.04C99.294 188.68 97.6727 189 95.966 189H71.518C69.7687 189 68.126 188.68 66.59 188.04C65.054 187.357 63.71 186.461 62.558 185.352C61.4487 184.2 60.5527 182.856 59.87 181.32C59.23 179.784 58.91 178.141 58.91 176.392V153.8ZM179.807 175.56C181.172 175.56 182.324 175.091 183.263 174.152C184.244 173.213 184.735 172.061 184.735 170.696V166.536C184.735 165.171 184.244 164.019 183.263 163.08C182.324 162.099 181.172 161.608 179.807 161.608H148.063V175.56H179.807ZM192.415 170.696C192.415 172.445 192.073 174.088 191.391 175.624C190.751 177.117 189.855 178.44 188.703 179.592C187.593 180.744 186.271 181.661 184.735 182.344C183.199 182.984 181.556 183.304 179.807 183.304H148.063V189H140.383V153.928L179.807 153.864C181.556 153.864 183.199 154.205 184.735 154.888C186.271 155.528 187.593 156.424 188.703 157.576C189.855 158.728 190.751 160.072 191.391 161.608C192.073 163.144 192.415 164.787 192.415 166.536V170.696ZM230.972 189H223.292V153.928H230.972V189ZM263.078 153.928H308.518V161.608H290.022V189H281.574V161.608H263.078V153.928ZM391.769 181.32V189H352.345C350.596 189 348.953 188.68 347.417 188.04C345.881 187.357 344.537 186.461 343.385 185.352C342.276 184.2 341.38 182.856 340.697 181.32C340.057 179.784 339.737 178.141 339.737 176.392V166.536C339.737 164.787 340.057 163.144 340.697 161.608C341.38 160.072 342.276 158.728 343.385 157.576C344.537 156.424 345.881 155.528 347.417 154.888C348.953 154.205 350.596 153.864 352.345 153.864L391.769 153.928V161.608H352.345C350.98 161.608 349.807 162.099 348.825 163.08C347.887 164.019 347.417 165.171 347.417 166.536V167.56H389.401V175.304H347.417V176.392C347.417 177.757 347.887 178.931 348.825 179.912C349.807 180.851 350.98 181.32 352.345 181.32H391.769ZM438.591 171.464H461.759C463.124 171.464 464.276 170.995 465.215 170.056C466.196 169.075 466.687 167.901 466.687 166.536C466.687 165.171 466.196 164.019 465.215 163.08C464.276 162.099 463.124 161.608 461.759 161.608H430.015V189H422.335V153.928L461.759 153.864C463.508 153.864 465.151 154.205 466.687 154.888C468.223 155.528 469.546 156.424 470.655 157.576C471.807 158.728 472.703 160.072 473.343 161.608C474.026 163.144 474.367 164.787 474.367 166.536C474.367 168.285 474.026 169.928 473.343 171.464C472.703 173 471.807 174.344 470.655 175.496C469.546 176.605 468.223 177.501 466.687 178.184C465.151 178.824 463.508 179.144 461.759 179.144H457.279L473.983 189H459.071L437.311 176.136C436.756 175.837 436.394 175.432 436.223 174.92C436.052 174.365 436.031 173.832 436.159 173.32C436.287 172.808 436.564 172.381 436.991 172.04C437.418 171.656 437.951 171.464 438.591 171.464Z" fill="white"/>
<path d="M238 0C207.049 0 182 25.0465 182 56C182 86.9513 207.047 112 238 112C268.951 112 294 86.9537 294 56.0002C294 25.0489 268.954 0 238 0ZM238 7.29687C245.724 7.29687 253.032 9.10725 259.527 12.3211C255.924 14.5124 252.538 17.0158 248.188 19.2527C236.543 25.2421 228.454 26.2044 209.656 16.4181C217.645 10.6801 227.435 7.29687 238 7.29687ZM203.648 21.5091C222.163 30.8671 233.007 35.2653 251.525 25.7415C257.829 22.4996 262.04 18.9329 266.719 16.6916C278.178 25.0866 285.849 38.3615 286.636 53.4306C274.242 52.6986 262.88 48.0707 254.272 45.2628C244.639 42.1211 220.149 36.1589 200.818 48.6158C196.942 51.114 193.101 52.8325 189.35 53.7569C189.923 41.1851 195.283 29.8407 203.648 21.5091ZM238 104.704C230.879 104.704 224.111 103.167 218.008 100.409C223.826 98.2327 230.709 96.7472 237.346 97.956C245.354 99.4146 250.639 100.522 255.804 101.334C250.287 103.509 244.28 104.704 238 104.704ZM266.801 95.2489C257.597 94.6128 251.886 93.1883 238.654 90.7772C228.193 88.8715 217.644 92.2667 210.056 95.866C204.997 92.3094 200.644 87.8153 197.248 82.6384C203.342 79.9197 211.904 77.8766 221.975 80.3947C245.127 86.1828 251.369 81.638 266.548 75.4944C270.863 73.7479 276.612 73.1733 283.34 73.7879C279.945 82.4102 274.158 89.8362 266.801 95.2489ZM285.522 66.6753C276.913 65.6942 269.618 66.3797 263.811 68.7304C248.462 74.9432 244.365 78.4707 223.745 73.3154C211.393 70.2269 200.974 72.8727 193.704 76.2329C191.562 71.5637 190.138 66.5005 189.573 61.184C194.606 60.1707 199.703 58.016 204.772 54.749C221.938 43.6865 245.268 50.001 252.009 52.1996C260.925 55.1079 272.885 59.9955 286.473 60.7329C286.277 62.7524 285.958 64.7354 285.522 66.6753Z" fill="#C99039"/>
</svg>
